<?xml version="1.0" encoding="iso-8859-1"?>
<!-- Uploaded to: SVG Repo, www.svgrepo.com, Generator: SVG Repo Mixer Tools -->
<!DOCTYPE svg PUBLIC "-//W3C//DTD SVG 1.1//EN" "http://www.w3.org/Graphics/SVG/1.1/DTD/svg11.dtd">
<svg height="800px" width="800px" version="1.1" id="Capa_1" xmlns="http://www.w3.org/2000/svg" xmlns:xlink="http://www.w3.org/1999/xlink" 
	 viewBox="0 0 122.408 122.408" xml:space="preserve">
<g id="XMLID_213_">
	<g id="XMLID_212_">
		<path id="XMLID_86_" style="fill:#E40103;" d="M110.076,39.866c0.057-0.031,0.109-0.064,0.166-0.095
			c0.297-0.164,0.582-0.335,0.857-0.511c0.101-0.064,0.201-0.128,0.298-0.194c0.294-0.199,0.579-0.403,0.848-0.615
			c0.088-0.07,0.17-0.143,0.255-0.214c0.197-0.163,0.387-0.33,0.568-0.5c0.036-0.034,0.077-0.065,0.113-0.099
			c-0.006,0.005-0.011,0.012-0.016,0.018c0.009-0.009,0.017-0.018,0.025-0.027c0.053-0.05,0.102-0.101,0.152-0.152
			c0.021-0.022,0.046-0.042,0.067-0.064c-0.016,0.016-0.034,0.031-0.051,0.046c0.016-0.016,0.029-0.032,0.044-0.048
			c0.18-0.181,0.353-0.366,0.517-0.554c0.081-0.093,0.162-0.186,0.239-0.281c0.187-0.229,0.364-0.461,0.529-0.698
			c0.051-0.073,0.1-0.148,0.148-0.222c0.149-0.227,0.289-0.458,0.419-0.692c0.055-0.1,0.107-0.2,0.159-0.3
			c0.114-0.223,0.22-0.448,0.316-0.675c0.03-0.07,0.063-0.138,0.092-0.208c0.114-0.287,0.212-0.577,0.299-0.87
			c0.028-0.096,0.054-0.192,0.079-0.288c0.062-0.233,0.115-0.469,0.16-0.705c0.016-0.083,0.035-0.165,0.048-0.247
			c0.051-0.306,0.087-0.613,0.109-0.922c0.006-0.081,0.007-0.162,0.011-0.243c0.013-0.252,0.016-0.504,0.01-0.757
			c-0.002-0.087-0.002-0.174-0.007-0.261c-0.015-0.318-0.042-0.638-0.086-0.958c-0.007-0.053-0.019-0.106-0.026-0.16
			c-0.043-0.277-0.097-0.554-0.16-0.831c-0.02-0.088-0.04-0.175-0.063-0.263c-0.083-0.325-0.175-0.649-0.286-0.972
			c-1.901-5.479-7.415-8.694-14.547-6.764c1.974-7.12-1.077-12.521-6.545-14.456c-0.322-0.114-0.646-0.207-0.971-0.292
			c-0.089-0.023-0.177-0.044-0.266-0.065c-0.272-0.064-0.544-0.119-0.816-0.162c-0.059-0.009-0.117-0.022-0.175-0.03
			c-0.318-0.046-0.637-0.075-0.954-0.092c-0.089-0.005-0.178-0.005-0.267-0.008c-0.247-0.007-0.493-0.005-0.739,0.005
			c-0.089,0.003-0.178,0.005-0.266,0.011c-0.308,0.021-0.613,0.054-0.916,0.102c-0.085,0.014-0.169,0.033-0.254,0.049
			c-0.23,0.043-0.46,0.093-0.688,0.152c-0.105,0.027-0.21,0.054-0.314,0.084c-0.282,0.083-0.563,0.175-0.84,0.283
			c-0.076,0.03-0.151,0.065-0.227,0.097c-0.227,0.095-0.45,0.197-0.671,0.31c-0.11,0.055-0.22,0.113-0.328,0.173
			c-0.203,0.112-0.402,0.232-0.601,0.358c-0.083,0.053-0.168,0.102-0.251,0.157c-0.254,0.173-0.502,0.361-0.747,0.56
			c-0.103,0.083-0.203,0.171-0.305,0.259c-0.17,0.148-0.337,0.302-0.501,0.462c-0.031,0.029-0.063,0.055-0.094,0.086
			c0.014-0.013,0.025-0.028,0.038-0.041c-0.018,0.017-0.034,0.037-0.052,0.054c-0.056,0.056-0.111,0.112-0.167,0.169
			c-0.015,0.016-0.03,0.029-0.046,0.044c0.01-0.009,0.021-0.017,0.029-0.026c-0.022,0.023-0.042,0.049-0.065,0.072
			c-0.173,0.183-0.343,0.374-0.509,0.571c-0.072,0.086-0.146,0.168-0.217,0.257c-0.214,0.268-0.421,0.551-0.621,0.844
			c-0.064,0.094-0.126,0.192-0.189,0.289c-0.177,0.272-0.349,0.555-0.513,0.849c-0.034,0.06-0.069,0.116-0.103,0.176
			c-0.19,0.351-0.37,0.719-0.543,1.099c-0.043,0.096-0.085,0.192-0.128,0.29c-0.173,0.398-0.339,0.806-0.49,1.235
			c-2.006,5.67-0.366,27.743-0.366,27.748l0,0c0,0,22.066,1.774,27.75-0.198c0.43-0.149,0.839-0.313,1.237-0.483
			c0.1-0.042,0.197-0.084,0.295-0.128C109.354,40.232,109.724,40.055,110.076,39.866z"/>
		<g id="XMLID_5_">
			<path id="XMLID_10_" style="fill:#E40103;" d="M39.866,12.333c-0.031-0.057-0.064-0.11-0.095-0.167
				c-0.165-0.296-0.336-0.582-0.512-0.857c-0.065-0.101-0.129-0.201-0.194-0.298c-0.198-0.294-0.402-0.578-0.614-0.847
				c-0.07-0.088-0.143-0.17-0.214-0.255c-0.164-0.197-0.33-0.386-0.501-0.568c-0.033-0.036-0.065-0.077-0.099-0.112
				c0.005,0.005,0.012,0.01,0.017,0.016c-0.008-0.009-0.018-0.017-0.026-0.026c-0.05-0.052-0.101-0.101-0.151-0.151
				c-0.022-0.022-0.043-0.046-0.064-0.068c0.016,0.017,0.03,0.035,0.046,0.051c-0.016-0.016-0.032-0.029-0.048-0.045
				c-0.181-0.18-0.365-0.352-0.554-0.516c-0.093-0.082-0.186-0.162-0.28-0.239c-0.229-0.187-0.461-0.364-0.698-0.529
				c-0.074-0.051-0.148-0.1-0.223-0.148c-0.227-0.149-0.458-0.288-0.691-0.418c-0.1-0.056-0.2-0.108-0.301-0.16
				c-0.223-0.114-0.448-0.219-0.676-0.316c-0.069-0.029-0.138-0.063-0.208-0.091c-0.286-0.115-0.577-0.212-0.87-0.299
				c-0.096-0.028-0.191-0.053-0.288-0.079c-0.233-0.062-0.469-0.115-0.705-0.161c-0.083-0.016-0.165-0.034-0.248-0.048
				c-0.305-0.05-0.612-0.086-0.922-0.109c-0.081-0.006-0.162-0.007-0.243-0.011c-0.251-0.012-0.504-0.016-0.758-0.01
				c-0.087,0.002-0.173,0.003-0.261,0.007c-0.318,0.015-0.638,0.043-0.957,0.087c-0.054,0.007-0.106,0.018-0.16,0.027
				c-0.277,0.042-0.554,0.096-0.831,0.159c-0.088,0.021-0.175,0.041-0.263,0.063c-0.325,0.082-0.649,0.175-0.972,0.287
				c-5.479,1.901-8.694,7.415-6.765,14.546c-7.12-1.973-12.521,1.077-14.455,6.545c-0.114,0.322-0.208,0.646-0.292,0.97
				c-0.023,0.088-0.045,0.177-0.065,0.265c-0.065,0.272-0.119,0.544-0.162,0.817c-0.01,0.058-0.021,0.116-0.03,0.174
				c-0.046,0.319-0.074,0.637-0.092,0.954c-0.005,0.089-0.005,0.178-0.008,0.267c-0.007,0.247-0.006,0.494,0.005,0.739
				c0.004,0.089,0.005,0.177,0.011,0.266c0.022,0.307,0.055,0.612,0.103,0.916c0.014,0.085,0.033,0.169,0.049,0.253
				c0.043,0.231,0.094,0.46,0.152,0.688c0.027,0.105,0.054,0.21,0.085,0.314c0.083,0.283,0.175,0.563,0.283,0.84
				c0.029,0.077,0.065,0.151,0.097,0.227c0.095,0.226,0.197,0.45,0.31,0.671c0.056,0.11,0.113,0.219,0.174,0.328
				c0.111,0.203,0.231,0.403,0.358,0.601c0.053,0.083,0.102,0.168,0.157,0.25c0.173,0.254,0.361,0.502,0.559,0.747
				c0.084,0.103,0.172,0.204,0.26,0.305c0.147,0.17,0.302,0.337,0.462,0.501c0.029,0.031,0.055,0.063,0.085,0.093
				c-0.013-0.013-0.027-0.025-0.041-0.038c0.018,0.018,0.037,0.034,0.055,0.052c0.056,0.056,0.111,0.111,0.169,0.167
				c0.016,0.015,0.028,0.031,0.044,0.046c-0.009-0.01-0.017-0.02-0.026-0.029c0.023,0.022,0.05,0.042,0.073,0.064
				c0.183,0.173,0.373,0.343,0.571,0.51c0.086,0.072,0.168,0.146,0.257,0.216c0.269,0.214,0.551,0.42,0.845,0.621
				c0.094,0.064,0.191,0.127,0.288,0.189c0.273,0.177,0.555,0.349,0.849,0.514c0.06,0.033,0.116,0.069,0.177,0.102
				c0.351,0.191,0.719,0.37,1.099,0.543c0.096,0.043,0.192,0.086,0.29,0.128c0.397,0.173,0.806,0.339,1.234,0.491
				c5.671,2.006,27.742,0.366,27.748,0.366l0,0c0,0,1.774-22.066-0.198-27.749c-0.148-0.43-0.313-0.839-0.482-1.238
				c-0.043-0.099-0.085-0.197-0.128-0.294C40.232,13.055,40.055,12.684,39.866,12.333z"/>
		</g>
		<g id="XMLID_264_">
			<path id="XMLID_265_" style="fill:#E40103;" d="M12.333,82.542c-0.058,0.031-0.11,0.064-0.167,0.095
				c-0.297,0.164-0.582,0.335-0.857,0.512c-0.101,0.064-0.2,0.128-0.298,0.193c-0.294,0.199-0.578,0.403-0.848,0.615
				c-0.088,0.07-0.17,0.143-0.255,0.213c-0.197,0.164-0.387,0.331-0.568,0.501c-0.036,0.034-0.077,0.065-0.113,0.099
				c0.006-0.006,0.011-0.012,0.016-0.018c-0.009,0.009-0.017,0.018-0.025,0.026c-0.053,0.05-0.101,0.102-0.152,0.152
				c-0.021,0.022-0.046,0.042-0.067,0.064c0.017-0.016,0.034-0.03,0.051-0.046c-0.016,0.015-0.028,0.032-0.044,0.047
				c-0.18,0.182-0.352,0.366-0.517,0.554c-0.081,0.093-0.161,0.186-0.239,0.281c-0.187,0.228-0.364,0.461-0.529,0.698
				c-0.051,0.074-0.1,0.148-0.148,0.222c-0.149,0.228-0.288,0.458-0.418,0.692c-0.056,0.1-0.108,0.2-0.16,0.301
				c-0.114,0.223-0.22,0.448-0.316,0.675c-0.029,0.07-0.063,0.138-0.092,0.208c-0.114,0.287-0.212,0.577-0.299,0.871
				c-0.028,0.095-0.054,0.192-0.079,0.288c-0.062,0.233-0.115,0.468-0.16,0.705c-0.016,0.083-0.034,0.165-0.048,0.248
				c-0.051,0.305-0.087,0.613-0.109,0.922c-0.006,0.081-0.007,0.162-0.011,0.243c-0.013,0.252-0.016,0.504-0.01,0.758
				c0.002,0.087,0.002,0.174,0.007,0.261c0.015,0.319,0.042,0.638,0.086,0.957c0.007,0.053,0.019,0.106,0.027,0.16
				c0.042,0.277,0.096,0.554,0.159,0.831c0.021,0.088,0.04,0.175,0.063,0.263c0.083,0.325,0.175,0.649,0.286,0.972
				c1.901,5.479,7.415,8.694,14.547,6.764c-1.973,7.12,1.077,12.521,6.545,14.456c0.322,0.114,0.647,0.208,0.971,0.293
				c0.089,0.023,0.177,0.044,0.266,0.065c0.271,0.064,0.544,0.119,0.816,0.162c0.059,0.01,0.117,0.022,0.175,0.031
				c0.318,0.045,0.637,0.074,0.954,0.091c0.089,0.005,0.178,0.006,0.267,0.008c0.247,0.007,0.493,0.005,0.739-0.005
				c0.089-0.004,0.178-0.005,0.266-0.011c0.308-0.021,0.613-0.054,0.916-0.103c0.085-0.014,0.169-0.033,0.254-0.048
				c0.23-0.043,0.46-0.093,0.688-0.152c0.104-0.027,0.21-0.054,0.314-0.085c0.282-0.083,0.563-0.175,0.84-0.283
				c0.076-0.03,0.151-0.065,0.227-0.098c0.226-0.094,0.45-0.197,0.671-0.309c0.11-0.056,0.22-0.114,0.328-0.173
				c0.203-0.112,0.403-0.232,0.601-0.359c0.084-0.053,0.168-0.101,0.251-0.157c0.254-0.172,0.502-0.361,0.747-0.559
				c0.103-0.083,0.203-0.171,0.305-0.259c0.17-0.147,0.337-0.302,0.501-0.462c0.031-0.03,0.063-0.056,0.094-0.086
				c-0.013,0.013-0.025,0.028-0.038,0.041c0.018-0.017,0.034-0.037,0.052-0.054c0.056-0.056,0.111-0.112,0.167-0.169
				c0.015-0.016,0.03-0.029,0.046-0.045c-0.01,0.009-0.021,0.017-0.029,0.026c0.021-0.023,0.042-0.049,0.064-0.072
				c0.173-0.183,0.343-0.374,0.509-0.572c0.072-0.086,0.146-0.169,0.217-0.257c0.214-0.268,0.421-0.551,0.621-0.845
				c0.064-0.094,0.126-0.191,0.189-0.288c0.177-0.273,0.349-0.555,0.513-0.849c0.034-0.06,0.069-0.116,0.103-0.177
				c0.19-0.35,0.37-0.719,0.543-1.099c0.043-0.095,0.085-0.192,0.128-0.29c0.173-0.398,0.339-0.806,0.49-1.235
				c2.006-5.67,0.366-27.742,0.366-27.748l0,0c0,0-22.066-1.774-27.75,0.198c-0.43,0.149-0.839,0.313-1.237,0.483
				c-0.1,0.042-0.197,0.084-0.295,0.128C13.055,82.176,12.685,82.353,12.333,82.542z"/>
		</g>
		<g id="XMLID_266_">
			<path id="XMLID_267_" style="fill:#E40103;" d="M82.542,110.076c0.031,0.057,0.064,0.11,0.096,0.166
				c0.164,0.297,0.335,0.582,0.512,0.857c0.063,0.1,0.128,0.201,0.193,0.298c0.198,0.294,0.402,0.579,0.615,0.847
				c0.069,0.088,0.142,0.17,0.213,0.256c0.164,0.196,0.33,0.386,0.501,0.568c0.033,0.036,0.065,0.077,0.099,0.113
				c-0.005-0.005-0.012-0.01-0.017-0.016c0.008,0.009,0.018,0.017,0.026,0.026c0.05,0.052,0.102,0.101,0.151,0.152
				c0.022,0.022,0.043,0.046,0.065,0.068c-0.016-0.016-0.03-0.035-0.046-0.051c0.016,0.016,0.032,0.029,0.048,0.044
				c0.181,0.179,0.365,0.352,0.554,0.516c0.093,0.081,0.186,0.162,0.28,0.239c0.228,0.187,0.461,0.365,0.698,0.529
				c0.074,0.051,0.148,0.1,0.223,0.148c0.227,0.15,0.458,0.289,0.691,0.419c0.1,0.055,0.2,0.108,0.301,0.16
				c0.223,0.114,0.448,0.22,0.676,0.316c0.069,0.03,0.138,0.064,0.208,0.092c0.286,0.114,0.577,0.212,0.87,0.299
				c0.096,0.028,0.192,0.053,0.288,0.078c0.233,0.062,0.469,0.116,0.705,0.161c0.083,0.016,0.165,0.035,0.248,0.048
				c0.305,0.05,0.612,0.086,0.922,0.109c0.081,0.006,0.162,0.007,0.243,0.011c0.252,0.013,0.504,0.016,0.758,0.01
				c0.087-0.002,0.174-0.003,0.261-0.007c0.318-0.015,0.638-0.042,0.957-0.086c0.054-0.007,0.106-0.019,0.16-0.027
				c0.277-0.042,0.554-0.096,0.831-0.16c0.088-0.02,0.175-0.041,0.263-0.063c0.325-0.083,0.649-0.174,0.972-0.286
				c5.479-1.901,8.694-7.414,6.765-14.547c7.12,1.974,12.521-1.077,14.455-6.545c0.114-0.322,0.208-0.646,0.293-0.971
				c0.022-0.088,0.044-0.176,0.064-0.265c0.064-0.272,0.118-0.544,0.162-0.817c0.01-0.058,0.021-0.116,0.03-0.175
				c0.046-0.318,0.074-0.636,0.092-0.954c0.005-0.089,0.006-0.177,0.008-0.266c0.007-0.247,0.006-0.494-0.005-0.74
				c-0.004-0.088-0.005-0.177-0.011-0.266c-0.021-0.307-0.055-0.612-0.103-0.916c-0.014-0.085-0.033-0.168-0.049-0.253
				c-0.043-0.231-0.094-0.461-0.152-0.689c-0.027-0.105-0.054-0.21-0.085-0.314c-0.083-0.283-0.175-0.563-0.283-0.84
				c-0.029-0.077-0.065-0.151-0.097-0.227c-0.095-0.226-0.197-0.45-0.31-0.671c-0.056-0.11-0.113-0.219-0.174-0.328
				c-0.111-0.203-0.232-0.403-0.358-0.601c-0.053-0.084-0.102-0.168-0.157-0.251c-0.173-0.254-0.361-0.502-0.559-0.747
				c-0.084-0.103-0.172-0.204-0.26-0.305c-0.148-0.17-0.302-0.337-0.461-0.502c-0.03-0.03-0.056-0.063-0.086-0.093
				c0.013,0.013,0.027,0.025,0.041,0.038c-0.018-0.018-0.037-0.034-0.054-0.051c-0.057-0.056-0.112-0.112-0.17-0.167
				c-0.016-0.015-0.028-0.031-0.044-0.045c0.009,0.009,0.017,0.02,0.026,0.029c-0.023-0.022-0.05-0.043-0.072-0.064
				c-0.184-0.173-0.374-0.343-0.572-0.509c-0.086-0.072-0.168-0.146-0.257-0.217c-0.268-0.214-0.551-0.42-0.845-0.621
				c-0.094-0.064-0.191-0.127-0.288-0.189c-0.272-0.177-0.555-0.349-0.849-0.513c-0.059-0.034-0.116-0.069-0.177-0.102
				c-0.351-0.191-0.719-0.37-1.099-0.542c-0.096-0.044-0.192-0.086-0.29-0.128c-0.397-0.172-0.806-0.339-1.234-0.491
				c-5.671-2.006-27.742-0.366-27.748-0.365l0,0c0,0-1.774,22.066,0.198,27.75c0.149,0.43,0.313,0.838,0.482,1.237
				c0.043,0.099,0.085,0.197,0.129,0.294C82.176,109.353,82.354,109.724,82.542,110.076z"/>
		</g>
	</g>
	<path id="XMLID_217_" style="fill:#66B406;" d="M109.249,48.489H73.974c-0.03,0-0.055-0.024-0.055-0.054V13.159
		c0-6.634-4.892-12.477-11.496-13.102c-7.534-0.712-13.934,5.262-13.934,12.657v35.72c0,0.03-0.024,0.054-0.054,0.054H13.159
		c-6.634,0-12.478,4.892-13.102,11.496c-0.712,7.535,5.262,13.934,12.657,13.934h35.721c0.029,0,0.054,0.024,0.054,0.054v35.276
		c0,6.634,4.892,12.478,11.496,13.102c7.534,0.712,13.934-5.262,13.934-12.658v-35.72c0-0.03,0.024-0.054,0.055-0.054h35.72
		c7.396,0,13.369-6.399,12.657-13.934C121.727,53.381,115.883,48.489,109.249,48.489z"/>
</g>
</svg>